<svg width="18" height="22" viewBox="0 0 18 22" fill="none" xmlns="http://www.w3.org/2000/svg">
<path d="M15.0328 11.6656C15.0639 14.9886 17.9676 16.0944 17.9998 16.1085C17.9752 16.1865 17.5358 17.6844 16.47 19.2316C15.5486 20.5692 14.5923 21.9019 13.0858 21.9295C11.6058 21.9566 11.1297 21.0577 9.43747 21.0577C7.74568 21.0577 7.21686 21.9019 5.81567 21.9566C4.36161 22.0113 3.25433 20.5102 2.32536 19.1774C0.426923 16.4513 -1.02383 11.4739 0.924173 8.11416C1.89188 6.44565 3.62136 5.38916 5.49842 5.36206C6.92626 5.33503 8.27401 6.31623 9.14687 6.31623C10.0192 6.31623 11.657 5.13627 13.3787 5.30954C14.0994 5.33937 16.1227 5.59869 17.4219 7.48761C17.3171 7.55208 15.0077 8.88751 15.0328 11.6657M12.251 3.50596C13.0231 2.57777 13.5426 1.28571 13.4008 0C12.2881 0.044419 10.9426 0.736546 10.1444 1.66418C9.4291 2.48572 8.80269 3.80055 8.97172 5.06077C10.212 5.1561 11.479 4.43471 12.251 3.50596Z" fill="black"/>
</svg>
