<svg width="25" height="25" viewBox="0 0 25 25" fill="none" xmlns="http://www.w3.org/2000/svg">
<path fill-rule="evenodd" clip-rule="evenodd" d="M12.5 2.08335C13.868 2.08334 15.2225 2.35277 16.4863 2.87626C17.7501 3.39974 18.8985 4.16702 19.8657 5.1343C20.833 6.10158 21.6003 7.2499 22.1238 8.51371C22.6473 9.77752 22.9167 11.1321 22.9167 12.5C22.9167 18.253 18.253 22.9167 12.5 22.9167C6.7471 22.9167 2.08337 18.253 2.08337 12.5C2.08337 6.74707 6.7471 2.08335 12.5 2.08335ZM13.5417 13.5417H11.4584C8.87952 13.5417 6.6655 15.1036 5.71057 17.3331C7.22151 19.4518 9.69944 20.8334 12.5 20.8334C15.3006 20.8334 17.7785 19.4518 19.2895 17.333C18.3346 15.1036 16.1206 13.5417 13.5417 13.5417ZM12.5 5.20835C10.7741 5.20835 9.37503 6.60747 9.37503 8.33335C9.37503 10.0592 10.7741 11.4584 12.5 11.4584C14.2259 11.4584 15.625 10.0592 15.625 8.33335C15.625 6.60747 14.226 5.20835 12.5 5.20835Z" fill="#1E7A46"/>
</svg>
