<svg width="35" height="35" viewBox="0 0 35 35" fill="none" xmlns="http://www.w3.org/2000/svg">
<path d="M18.75 32.5V17.27C19.4944 17.0086 20.1374 16.5192 20.5875 15.8712L31.3288 18.75L31.9762 16.335L21.22 13.4537C21.1514 12.5927 20.7862 11.7821 20.1867 11.1602C19.5872 10.5383 18.7905 10.1438 17.9325 10.0437L15.2425 0L12.8275 0.64875L15.4925 10.5938C14.7159 11.0782 14.1463 11.8332 13.894 12.7131C13.6417 13.5929 13.7244 14.5351 14.1262 15.3575L6.25 23.2325L8.01875 25L15.8938 17.125C16.01 17.179 16.1289 17.227 16.25 17.2687V32.5H0V35H35V32.5H18.75ZM18.75 13.75C18.75 13.9972 18.6767 14.2389 18.5393 14.4445C18.402 14.65 18.2068 14.8102 17.9784 14.9049C17.7499 14.9995 17.4986 15.0242 17.2561 14.976C17.0137 14.9278 16.7909 14.8087 16.6161 14.6339C16.4413 14.4591 16.3223 14.2363 16.274 13.9939C16.2258 13.7514 16.2505 13.5001 16.3451 13.2716C16.4398 13.0432 16.6 12.848 16.8055 12.7107C17.0111 12.5733 17.2528 12.5 17.5 12.5C17.8315 12.5 18.1495 12.6317 18.3839 12.8661C18.6183 13.1005 18.75 13.4185 18.75 13.75Z" fill="#1AFF00"/>
</svg>
