<svg width="39" height="39" viewBox="0 0 39 39" fill="none" xmlns="http://www.w3.org/2000/svg">
<path fill-rule="evenodd" clip-rule="evenodd" d="M19.0429 4.28528C15.129 4.28528 11.3755 5.84005 8.60798 8.60755C5.84048 11.375 4.28571 15.1286 4.28571 19.0424C4.28571 19.6107 4.05995 20.1558 3.65809 20.5577C3.25622 20.9595 2.71118 21.1853 2.14286 21.1853C1.57454 21.1853 1.02949 20.9595 0.627628 20.5577C0.225765 20.1558 8.46864e-09 19.6107 0 19.0424C8.12524e-05 15.5322 0.970389 12.0903 2.80375 9.09692C4.63711 6.10353 7.26217 3.67512 10.389 2.07994C13.5158 0.484748 17.0227 -0.215145 20.5223 0.0575638C24.0219 0.330273 27.378 1.56497 30.22 3.62528L32.1286 1.71957C32.411 1.43767 32.7666 1.24024 33.1552 1.14952C33.5438 1.05881 33.95 1.07841 34.3281 1.20611C34.7061 1.33382 35.041 1.56456 35.295 1.87234C35.549 2.18012 35.7121 2.55271 35.7657 2.94814C36.2029 6.17671 36.2686 8.02528 36.0514 11.1539C36.019 11.6163 35.8376 12.0557 35.5343 12.4063C35.231 12.7568 34.8222 12.9996 34.3692 13.0981C33.9162 13.1966 33.4435 13.1456 33.022 12.9527C32.6005 12.7597 32.2529 12.4353 32.0314 12.0281C30.7673 9.68501 28.8923 7.72792 26.6054 6.36466C24.3186 5.00139 21.7052 4.28284 19.0429 4.28528ZM20.8286 19.5367C20.8288 19.4044 20.8658 19.2748 20.9355 19.1623C21.0051 19.0498 21.1046 18.9588 21.2229 18.8996L26.9514 16.0367L28 15.511C28.0957 15.4614 28.2017 15.435 28.3095 15.434C28.4173 15.433 28.5238 15.4574 28.6203 15.5053C28.7169 15.5531 28.8008 15.6231 28.8653 15.7095C28.9298 15.7959 28.973 15.8962 28.9914 16.0024C29.4029 18.6053 29.22 21.391 28.5171 23.8453C28.4329 24.1086 28.2741 24.3419 28.06 24.5167C25.6886 26.4996 23.94 27.5024 21.7229 28.2024C21.6186 28.2344 21.5083 28.2413 21.4009 28.2225C21.2934 28.2038 21.192 28.1599 21.1048 28.0944C21.0176 28.0289 20.9471 27.9437 20.8991 27.8458C20.8511 27.7479 20.8269 27.64 20.8286 27.531V19.5367ZM17.2571 19.5367C17.2569 19.4044 17.2199 19.2748 17.1502 19.1623C17.0806 19.0498 16.9811 18.9588 16.8629 18.8996L10.0857 15.511C9.98984 15.4613 9.8836 15.435 9.77563 15.4342C9.66766 15.4334 9.56103 15.458 9.4644 15.5062C9.36777 15.5544 9.28389 15.6247 9.21957 15.7114C9.15526 15.7981 9.11233 15.8988 9.09429 16.0053C8.68286 18.6053 8.86571 21.391 9.56857 23.8453C9.65277 24.1086 9.81157 24.3419 10.0257 24.5167C12.3971 26.4996 14.1457 27.5024 16.3629 28.2024C16.8114 28.3453 17.2571 28.0024 17.2571 27.5339V19.5367ZM19.3629 15.8367C19.2635 15.8865 19.154 15.9124 19.0429 15.9124C18.9318 15.9124 18.8222 15.8865 18.7229 15.8367L12.4143 12.6824C12.3058 12.6306 12.2129 12.5512 12.1448 12.4522C12.0767 12.3532 12.0359 12.238 12.0263 12.1182C12.0168 11.9984 12.0389 11.8781 12.0904 11.7696C12.142 11.661 12.2211 11.5679 12.32 11.4996C12.9286 11.0853 13.5114 10.7453 14.1 10.451C15.4543 9.77957 16.9171 9.32814 18.9086 8.93671C18.9985 8.92229 19.0901 8.92229 19.18 8.93671C21.1686 9.32814 22.6314 9.77957 23.9857 10.451C24.5743 10.7453 25.1571 11.0853 25.7657 11.4996C25.8646 11.5679 25.9438 11.661 25.9953 11.7696C26.0469 11.8781 26.069 11.9984 26.0594 12.1182C26.0499 12.238 26.009 12.3532 25.9409 12.4522C25.8728 12.5512 25.7799 12.6306 25.6714 12.6824L25.3829 12.8253L19.3629 15.8367ZM38.0857 19.0424C38.0857 18.4741 37.8599 17.9291 37.4581 17.5272C37.0562 17.1253 36.5112 16.8996 35.9429 16.8996C35.3745 16.8996 34.8295 17.1253 34.4276 17.5272C34.0258 17.9291 33.8 18.4741 33.8 19.0424C33.8021 22.3217 32.7118 25.5083 30.7013 28.0991C28.6909 30.6898 25.8747 32.5371 22.6976 33.3493C19.5204 34.1614 16.1632 33.8921 13.1561 32.584C10.149 31.2758 7.66329 29.0033 6.09143 26.1253C5.86885 25.719 5.52059 25.3958 5.09886 25.2041C4.67712 25.0124 4.20461 24.9625 3.75215 25.0619C3.29969 25.1614 2.89163 25.4048 2.58914 25.7556C2.28664 26.1065 2.106 26.546 2.07429 27.0081C1.86 30.1367 1.92571 31.9853 2.36 35.2167C2.41326 35.6127 2.57618 35.9859 2.83036 36.2942C3.08455 36.6025 3.41987 36.8336 3.79846 36.9614C4.17705 37.0892 4.58383 37.1086 4.97285 37.0174C5.36188 36.9262 5.71765 36.728 6 36.4453L7.93429 34.511C10.7797 36.5546 14.1336 37.7737 17.6271 38.0341C21.1206 38.2945 24.6183 37.5862 27.7352 35.9872C30.8522 34.3881 33.4676 31.9602 35.2938 28.9706C37.1199 25.981 38.086 22.5456 38.0857 19.0424Z" fill="#1E7A46"/>
</svg>
