<svg width="25" height="25" viewBox="0 0 25 25" fill="none" xmlns="http://www.w3.org/2000/svg">
<path fill-rule="evenodd" clip-rule="evenodd" d="M13.0864 3.33333H11.9135L11.2416 6.01875L10.5676 6.22708C10.1749 6.3481 9.79441 6.50573 9.43117 6.69792L8.80721 7.02812L6.43221 5.60312L5.60304 6.43333L7.02804 8.80833L6.69784 9.43125C6.5053 9.79445 6.34731 10.1749 6.22596 10.5677L6.01867 11.2417L3.33325 11.9135V13.0865L6.01867 13.7583L6.227 14.4323C6.34714 14.8267 6.50409 15.2056 6.69784 15.5687L7.02804 16.1927L5.60304 18.5677L6.43325 19.3969L8.80825 17.9719L9.43117 18.3021C9.79436 18.4951 10.1732 18.6524 10.5676 18.774L11.2416 18.9813L11.9135 21.6667H13.0864L13.7583 18.9813L14.4322 18.7729C14.8249 18.6519 15.2054 18.4943 15.5687 18.3021L16.1926 17.9719L18.5676 19.3969L19.3968 18.5667L17.9718 16.1917L18.302 15.5687C18.4951 15.2056 18.6524 14.8267 18.7739 14.4323L18.9812 13.7583L21.6666 13.0865V11.9135L18.9812 11.2417L18.7728 10.5677C18.6518 10.175 18.4942 9.79449 18.302 9.43125L17.9718 8.80729L19.3968 6.43229L18.5666 5.60312L16.1916 7.02812L15.5687 6.69792C15.2055 6.50538 14.825 6.34739 14.4322 6.22604L13.7583 6.01875L13.0864 3.33333ZM16.1541 5.59375L18.0635 4.44792C18.2626 4.3285 18.4958 4.27902 18.7263 4.30733C18.9567 4.33564 19.1711 4.44011 19.3353 4.60417L20.3958 5.66458C20.5598 5.82885 20.6643 6.04322 20.6926 6.27365C20.7209 6.50408 20.6714 6.73736 20.552 6.93646L19.4062 8.84583C19.6353 9.27639 19.8228 9.72778 19.9687 10.2L22.128 10.7406C22.3533 10.7971 22.5532 10.9271 22.6961 11.1102C22.839 11.2933 22.9166 11.5188 22.9166 11.751V13.249C22.9166 13.4812 22.839 13.7067 22.6961 13.8898C22.5532 14.0729 22.3533 14.2029 22.128 14.2594L19.9687 14.8C19.8228 15.2722 19.6353 15.7236 19.4062 16.1542L20.552 18.0635C20.6714 18.2626 20.7209 18.4959 20.6926 18.7263C20.6643 18.9568 20.5598 19.1711 20.3958 19.3354L19.3353 20.3958C19.1711 20.5599 18.9567 20.6644 18.7263 20.6927C18.4958 20.721 18.2626 20.6715 18.0635 20.5521L16.1541 19.4062C15.7235 19.6354 15.2721 19.8229 14.7999 19.9688L14.2593 22.1281C14.2029 22.3534 14.0728 22.5533 13.8897 22.6962C13.7067 22.8391 13.4811 22.9167 13.2489 22.9167H11.751C11.5187 22.9167 11.2932 22.8391 11.1101 22.6962C10.9271 22.5533 10.797 22.3534 10.7405 22.1281L10.1999 19.9688C9.73189 19.8241 9.27851 19.6358 8.84575 19.4062L6.93638 20.5521C6.73728 20.6715 6.504 20.721 6.27357 20.6927C6.04314 20.6644 5.82877 20.5599 5.6645 20.3958L4.60409 19.3354C4.44003 19.1711 4.33556 18.9568 4.30725 18.7263C4.27894 18.4959 4.32842 18.2626 4.44784 18.0635L5.59367 16.1542C5.36413 15.7214 5.1758 15.268 5.03117 14.8L2.87179 14.2594C2.64671 14.203 2.4469 14.0731 2.30405 13.8902C2.1612 13.7074 2.08349 13.482 2.08325 13.25V11.7521C2.08326 11.5199 2.16086 11.2943 2.30373 11.1112C2.44659 10.9282 2.64654 10.7981 2.87179 10.7417L5.03117 10.201C5.177 9.72882 5.3645 9.27743 5.59367 8.84687L4.44784 6.9375C4.32842 6.7384 4.27894 6.50512 4.30725 6.27469C4.33556 6.04426 4.44003 5.8299 4.60409 5.66562L5.6645 4.60417C5.82877 4.44011 6.04314 4.33564 6.27357 4.30733C6.504 4.27902 6.73728 4.3285 6.93638 4.44792L8.84575 5.59375C9.27631 5.36458 9.7277 5.17708 10.1999 5.03125L10.7405 2.87187C10.7969 2.64679 10.9269 2.44698 11.1097 2.30413C11.2926 2.16128 11.5179 2.08357 11.7499 2.08333H13.2478C13.4801 2.08334 13.7056 2.16094 13.8887 2.30381C14.0717 2.44667 14.2018 2.64662 14.2583 2.87187L14.7989 5.03125C15.2711 5.17708 15.7225 5.36458 16.153 5.59375H16.1541ZM12.4999 15.4167C13.2735 15.4167 14.0153 15.1094 14.5623 14.5624C15.1093 14.0154 15.4166 13.2735 15.4166 12.5C15.4166 11.7265 15.1093 10.9846 14.5623 10.4376C14.0153 9.89062 13.2735 9.58333 12.4999 9.58333C11.7264 9.58333 10.9845 9.89062 10.4375 10.4376C9.89054 10.9846 9.58325 11.7265 9.58325 12.5C9.58325 13.2735 9.89054 14.0154 10.4375 14.5624C10.9845 15.1094 11.7264 15.4167 12.4999 15.4167ZM12.4999 16.6667C11.3949 16.6667 10.335 16.2277 9.55364 15.4463C8.77224 14.6649 8.33325 13.6051 8.33325 12.5C8.33325 11.3949 8.77224 10.3351 9.55364 9.55372C10.335 8.77232 11.3949 8.33333 12.4999 8.33333C13.605 8.33333 14.6648 8.77232 15.4462 9.55372C16.2276 10.3351 16.6666 11.3949 16.6666 12.5C16.6666 13.6051 16.2276 14.6649 15.4462 15.4463C14.6648 16.2277 13.605 16.6667 12.4999 16.6667Z" fill="#1E7A46"/>
</svg>
