<svg width="27" height="27" viewBox="0 0 27 27" fill="none" xmlns="http://www.w3.org/2000/svg">
<path d="M14.0625 24.375V12.9525C14.6208 12.7565 15.103 12.3894 15.4406 11.9034L23.4966 14.0625L23.9822 12.2513L15.915 10.0903C15.8636 9.44451 15.5897 8.83655 15.14 8.37016C14.6904 7.90376 14.0929 7.60782 13.4494 7.53281L11.4319 0L9.62063 0.486563L11.6194 7.94531C11.0369 8.30862 10.6098 8.87493 10.4205 9.53482C10.2312 10.1947 10.2933 10.9013 10.5947 11.5181L4.6875 17.4244L6.01406 18.75L11.9203 12.8438C12.0075 12.8842 12.0967 12.9202 12.1875 12.9516V24.375H0V26.25H26.25V24.375H14.0625ZM14.0625 10.3125C14.0625 10.4979 14.0075 10.6792 13.9045 10.8333C13.8015 10.9875 13.6551 11.1077 13.4838 11.1786C13.3125 11.2496 13.124 11.2682 12.9421 11.232C12.7602 11.1958 12.5932 11.1065 12.4621 10.9754C12.331 10.8443 12.2417 10.6773 12.2055 10.4954C12.1693 10.3135 12.1879 10.125 12.2589 9.95373C12.3298 9.78243 12.45 9.63601 12.6042 9.533C12.7583 9.42998 12.9396 9.375 13.125 9.375C13.3736 9.375 13.6121 9.47377 13.7879 9.64959C13.9637 9.8254 14.0625 10.0639 14.0625 10.3125Z" fill="#1E7A46"/>
</svg>
