<svg width="22" height="8" viewBox="0 0 22 8" fill="none" xmlns="http://www.w3.org/2000/svg">
<path d="M3.17317 0.156882L0.156178 3.17387C0.0561581 3.27389 -3.21528e-05 3.40955 -3.21581e-05 3.55099C-3.21528e-05 3.69244 0.0561581 3.8281 0.156178 3.92812L3.17317 6.94511C3.24772 7.01993 3.34281 7.07093 3.44638 7.09164C3.54995 7.11235 3.65734 7.10184 3.75493 7.06145C3.85253 7.02105 3.93593 6.95259 3.99456 6.86474C4.0532 6.77689 4.08443 6.67361 4.0843 6.56798L4.08354 4.08425L21.6522 4.085V3.01699L4.08354 3.01774L4.0843 0.534006C4.08443 0.428384 4.0532 0.3251 3.99456 0.237249C3.93593 0.149398 3.85253 0.080936 3.75493 0.0405416C3.65734 0.000147291 3.54995 -0.0103597 3.44638 0.0103523C3.34281 0.0310642 3.24772 0.0820626 3.17317 0.156882Z" fill="#1E7A46"/>
</svg>
