<svg width="36" height="36" viewBox="0 0 36 36" fill="none" xmlns="http://www.w3.org/2000/svg">
<path d="M29.9351 5.18669C28.313 3.54854 26.3832 2.24703 24.2566 1.35694C22.13 0.466854 19.8484 0.00572711 17.5431 5.30099e-05C15.2377 -0.00562109 12.9539 0.444269 10.8229 1.32388C8.69196 2.20349 6.75578 3.49548 5.12563 5.12563C3.49548 6.75578 2.20349 8.69196 1.32388 10.8229C0.444269 12.9539 -0.00562109 15.2377 5.30099e-05 17.5431C0.00572711 19.8484 0.466854 22.13 1.35694 24.2566C2.24703 26.3832 3.54854 28.313 5.18669 29.9351C6.8088 31.5733 8.7386 32.8748 10.8652 33.7649C12.9918 34.655 15.2734 35.1161 17.5788 35.1218C19.8841 35.1274 22.1679 34.6776 24.2989 33.7979C26.4299 32.9183 28.366 31.6263 29.9962 29.9962C31.6263 28.366 32.9183 26.4299 33.7979 24.2989C34.6776 22.1679 35.1274 19.8841 35.1218 17.5788C35.1161 15.2734 34.655 12.9918 33.7649 10.8652C32.8748 8.7386 31.5733 6.8088 29.9351 5.18669ZM2.56091 17.5609C2.56032 16.2333 2.73635 14.9116 3.08435 13.6304C3.65779 14.8648 4.4906 15.9312 5.05701 17.1976C5.78904 18.8258 7.75466 18.3742 8.62263 19.8008C9.39294 21.0672 8.57029 22.6687 9.14685 23.9937C9.5656 24.9554 10.5531 25.1656 11.2344 25.8687C11.9304 26.5781 11.9156 27.55 12.0219 28.475C12.1417 29.5618 12.3361 30.6391 12.6039 31.6992C12.6039 31.707 12.6039 31.7156 12.6101 31.7234C6.76404 29.6703 2.56091 24.0976 2.56091 17.5609ZM17.5609 32.5609C16.7232 32.5607 15.887 32.4907 15.0609 32.3515C15.0695 32.1398 15.0734 31.9422 15.0945 31.8047C15.2843 30.5625 15.9062 29.3476 16.7453 28.4179C17.5742 27.5008 18.7101 26.8804 19.4101 25.8398C20.0961 24.8242 20.3015 23.457 20.0187 22.2703C19.6023 20.5172 17.2203 19.932 15.9359 18.9812C15.1976 18.4343 14.5406 17.589 13.5711 17.5203C13.1242 17.489 12.75 17.5851 12.307 17.4711C11.9008 17.3656 11.582 17.1468 11.1492 17.2039C10.3406 17.3101 9.83044 18.1742 8.96169 18.057C8.13747 17.9468 7.28826 16.982 7.10076 16.1968C6.86013 15.1875 7.65857 14.8601 8.51404 14.7703C8.87107 14.7328 9.27185 14.6922 9.61482 14.8234C10.0664 14.9906 10.2797 15.4328 10.6851 15.6562C11.4453 16.0734 11.5992 15.407 11.4828 14.732C11.3086 13.7211 11.1054 13.3094 12.007 12.6133C12.632 12.1336 13.1664 11.7867 13.0664 10.925C13.007 10.4187 12.7297 10.1898 12.9883 9.68591C13.1844 9.30232 13.7226 8.95622 14.0734 8.72732C14.9789 8.13669 17.9523 8.18044 16.7375 6.52732C16.3804 6.04216 15.7219 5.17497 15.0969 5.05622C14.3156 4.90857 13.9687 5.78044 13.4242 6.16482C12.8617 6.56248 11.7664 7.01404 11.2031 6.39919C10.4453 5.57185 11.7054 5.30076 11.9843 4.72263C12.1133 4.4531 11.9843 4.07888 11.7672 3.72654C12.0489 3.60779 12.3354 3.49763 12.6265 3.39607C12.809 3.53083 13.0255 3.612 13.2515 3.63044C13.7742 3.66482 14.2672 3.38201 14.7234 3.73826C15.2297 4.12888 15.5945 4.62263 16.2664 4.74451C16.9164 4.86247 17.6047 4.48357 17.7656 3.81794C17.8633 3.41326 17.7656 2.98591 17.6719 2.56794C20.5937 2.58476 23.4463 3.45981 25.875 5.08435C25.7187 5.02498 25.532 5.03201 25.3015 5.13904C24.8273 5.35935 24.1554 5.92029 24.1 6.47654C24.0367 7.10779 24.9679 7.19685 25.4101 7.19685C26.0742 7.19685 26.7469 6.89997 26.5328 6.13279C26.4398 5.79997 26.3133 5.45388 26.1094 5.24451C26.5995 5.58459 27.0691 5.95347 27.5156 6.34919C27.5086 6.35623 27.5015 6.36247 27.4945 6.37029C27.0445 6.83904 26.5219 7.21013 26.214 7.78044C25.9969 8.18201 25.7523 8.37263 25.3125 8.47654C25.0703 8.53357 24.7937 8.55466 24.5906 8.71716C24.025 9.16247 24.3469 10.2328 24.8828 10.5539C25.5601 10.9593 26.5648 10.7687 27.0758 10.1898C27.475 9.73669 27.7101 8.94998 28.4281 8.95076C28.7442 8.9501 29.0478 9.07386 29.2734 9.29529C29.5703 9.6031 29.5117 9.8906 29.575 10.275C29.6867 10.9578 30.289 10.5875 30.6554 10.2429C30.9225 10.7183 31.1635 11.2078 31.3773 11.7093C30.9742 12.2898 30.6539 12.9226 29.6844 12.2461C29.1039 11.8406 28.7469 11.2523 28.0179 11.0695C27.3812 10.9133 26.7289 11.0758 26.1 11.1843C25.3851 11.3086 24.5375 11.3633 23.9953 11.9047C23.4711 12.4265 23.1937 13.125 22.6359 13.6492C21.557 14.6648 21.1015 15.7734 21.8 17.2094C22.4719 18.5898 23.8773 19.339 25.3937 19.2406C26.8836 19.1414 28.4312 18.2773 28.3883 20.4422C28.3726 21.2086 28.5328 21.739 28.7679 22.4508C28.9859 23.107 28.9711 23.7429 29.0211 24.4203C29.0686 25.2135 29.1926 26.0002 29.3914 26.7695C27.9911 28.5725 26.1972 30.0315 24.1468 31.0352C22.0964 32.039 19.8438 32.5608 17.5609 32.5609Z" fill="#1E7A46"/>
</svg>
