<svg width="37" height="35" viewBox="0 0 37 35" fill="none" xmlns="http://www.w3.org/2000/svg">
<path d="M1.66667 23.3333H5V35H1.66667V23.3333ZM11.6667 15H15V35H11.6667V15ZM21.6667 21.6667H25V35H21.6667V21.6667ZM31.6667 15H35V35H31.6667V15ZM28.3333 6.66667H30V8.33333H28.3333V6.66667ZM26.6667 8.33333H28.3333V10H26.6667V8.33333ZM21.6667 10H25V11.6667H21.6667V10ZM21.6667 15H25V16.6667H21.6667V15ZM20 11.6667H21.6667V15H20V11.6667ZM25 11.6667H26.6667V15H25V11.6667ZM18.3333 8.33333H20V10H18.3333V8.33333ZM16.6667 6.66667H18.3333V8.33333H16.6667V6.66667ZM11.6667 5H15V6.66667H11.6667V5ZM11.6667 0H15V1.66667H11.6667V0ZM15 1.66667H16.6667V5H15V1.66667ZM10 1.66667H11.6667V5H10V1.66667ZM31.6667 5H35V6.66667H31.6667V5ZM30 1.66667H31.6667V5H30V1.66667ZM31.6667 0H35V1.66667H31.6667V0ZM35 1.66667H36.6667V5H35V1.66667ZM8.33333 8.33333H10V10H8.33333V8.33333ZM6.66667 10H8.33333V11.6667H6.66667V10ZM5 13.3333H6.66667V16.6667H5V13.3333ZM0 13.3333H1.66667V16.6667H0V13.3333ZM1.66667 11.6667H5V13.3333H1.66667V11.6667ZM1.66667 16.6667H5V18.3333H1.66667V16.6667Z" fill="#1E7A46"/>
</svg>
