<svg width="27" height="30" viewBox="0 0 27 30" fill="none" xmlns="http://www.w3.org/2000/svg">
<path d="M0 25.8333V10.8333C0 10.3056 0.118333 9.80555 0.355 9.33333C0.591666 8.86111 0.917778 8.47222 1.33333 8.16666L11.3333 0.666667C11.9167 0.222222 12.5833 0 13.3333 0C14.0833 0 14.75 0.222222 15.3333 0.666667L25.3333 8.16666C25.75 8.47222 26.0767 8.86111 26.3133 9.33333C26.55 9.80555 26.6678 10.3056 26.6667 10.8333V25.8333C26.6667 26.75 26.34 27.535 25.6867 28.1883C25.0333 28.8417 24.2489 29.1678 23.3333 29.1667H18.3333C17.8611 29.1667 17.4655 29.0067 17.1467 28.6867C16.8278 28.3667 16.6678 27.9711 16.6667 27.5V19.1667C16.6667 18.6944 16.5067 18.2989 16.1867 17.98C15.8667 17.6611 15.4711 17.5011 15 17.5H11.6667C11.1944 17.5 10.7989 17.66 10.48 17.98C10.1611 18.3 10.0011 18.6955 10 19.1667V27.5C10 27.9722 9.84 28.3683 9.52 28.6883C9.2 29.0083 8.80444 29.1678 8.33333 29.1667H3.33333C2.41667 29.1667 1.63222 28.8405 0.979999 28.1883C0.327777 27.5361 0.00111111 26.7511 0 25.8333Z" fill="#1E7A46"/>
</svg>
