<svg width="23" height="23" viewBox="0 0 23 23" fill="none" xmlns="http://www.w3.org/2000/svg">
<g clip-path="url(#clip0_50_186)">
<path d="M16.2917 11.9792C16.4188 11.9792 16.5407 11.9287 16.6306 11.8389C16.7204 11.749 16.7709 11.6271 16.7709 11.5C16.7709 11.373 16.7204 11.2511 16.6306 11.1612C16.5407 11.0714 16.4188 11.0209 16.2917 11.0209C16.1647 11.0209 16.0428 11.0714 15.9529 11.1612C15.8631 11.2511 15.8126 11.373 15.8126 11.5C15.8126 11.6271 15.8631 11.749 15.9529 11.8389C16.0428 11.9287 16.1647 11.9792 16.2917 11.9792ZM11.5001 11.9792C11.6272 11.9792 11.749 11.9287 11.8389 11.8389C11.9288 11.749 11.9792 11.6271 11.9792 11.5C11.9792 11.373 11.9288 11.2511 11.8389 11.1612C11.749 11.0714 11.6272 11.0209 11.5001 11.0209C11.373 11.0209 11.2511 11.0714 11.1613 11.1612C11.0714 11.2511 11.0209 11.373 11.0209 11.5C11.0209 11.6271 11.0714 11.749 11.1613 11.8389C11.2511 11.9287 11.373 11.9792 11.5001 11.9792ZM6.70841 11.9792C6.8355 11.9792 6.95738 11.9287 7.04724 11.8389C7.1371 11.749 7.18758 11.6271 7.18758 11.5C7.18758 11.373 7.1371 11.2511 7.04724 11.1612C6.95738 11.0714 6.8355 11.0209 6.70841 11.0209C6.58133 11.0209 6.45945 11.0714 6.36959 11.1612C6.27973 11.2511 6.22925 11.373 6.22925 11.5C6.22925 11.6271 6.27973 11.749 6.36959 11.8389C6.45945 11.9287 6.58133 11.9792 6.70841 11.9792Z" fill="#1E7A46" stroke="#1E7A46" stroke-width="2" stroke-linecap="round" stroke-linejoin="round"/>
<path d="M11.5001 21.0834C16.793 21.0834 21.0834 16.7929 21.0834 11.5C21.0834 6.20715 16.793 1.91669 11.5001 1.91669C6.20721 1.91669 1.91675 6.20715 1.91675 11.5C1.91675 13.2451 2.38346 14.8829 3.199 16.2917L2.39591 20.6042L6.70841 19.8011C8.16473 20.6433 9.81777 21.0857 11.5001 21.0834Z" stroke="#1E7A46" stroke-width="2" stroke-linecap="round" stroke-linejoin="round"/>
</g>
<defs>
<clipPath id="clip0_50_186">
<rect width="23" height="23" fill="white"/>
</clipPath>
</defs>
</svg>
