<svg width="21" height="21" viewBox="0 0 21 21" fill="none" xmlns="http://www.w3.org/2000/svg">
<path d="M16.9011 7.67419L15.5623 9.01294C15.4393 9.13616 15.2723 9.20546 15.0982 9.20558C14.924 9.20571 14.7569 9.13665 14.6337 9.01359C14.5105 8.89054 14.4412 8.72358 14.4411 8.54943C14.441 8.37529 14.51 8.20823 14.6331 8.085L16.0768 6.64256C16.0112 6.57256 15.9447 6.50387 15.8773 6.4365C14.4396 4.99359 12.5312 4.11552 10.5 3.96244V5.90625C10.5 6.0803 10.4309 6.24722 10.3078 6.37029C10.1847 6.49336 10.0178 6.5625 9.84376 6.5625C9.66971 6.5625 9.50279 6.49336 9.37972 6.37029C9.25665 6.24722 9.18751 6.0803 9.18751 5.90625V3.96244C7.04969 4.12332 5.05183 5.08684 3.59494 6.65962L4.99932 8.06531C5.11409 8.18983 5.17628 8.3539 5.17289 8.5232C5.16951 8.69251 5.1008 8.85396 4.98114 8.97379C4.86148 9.09362 4.70014 9.16255 4.53083 9.16618C4.36153 9.1698 4.19737 9.10784 4.07269 8.99325L2.77332 7.69387C1.69097 9.28832 1.18406 11.2039 1.33613 13.125H3.28126C3.4553 13.125 3.62222 13.1941 3.7453 13.3172C3.86837 13.4403 3.93751 13.6072 3.93751 13.7812C3.93751 13.9553 3.86837 14.1222 3.7453 14.2453C3.62222 14.3684 3.4553 14.4375 3.28126 14.4375H1.54088C1.65026 14.9012 1.79769 15.3519 1.98319 15.7894C2.0168 15.8688 2.03443 15.9541 2.03508 16.0404C2.03572 16.1267 2.01937 16.2122 1.98695 16.2922C1.95453 16.3721 1.90668 16.4449 1.84613 16.5064C1.78559 16.5678 1.71353 16.6168 1.63407 16.6504C1.55461 16.684 1.46931 16.7016 1.38304 16.7023C1.29677 16.7029 1.21121 16.6865 1.13126 16.6541C1.05131 16.6217 0.978529 16.5739 0.91707 16.5133C0.855611 16.4528 0.806679 16.3807 0.773069 16.3012C0.261726 15.0883 -0.00114516 13.7851 6.61784e-06 12.4687C-0.00149474 11.1757 0.252471 9.895 0.747319 8.70034C1.24217 7.50568 1.96815 6.42054 2.88357 5.50725C4.72968 3.66162 7.2333 2.62486 9.84376 2.625C11.1366 2.62493 12.4169 2.87955 13.6113 3.37432C14.8058 3.86908 15.8911 4.59431 16.8053 5.50856C17.7203 6.4218 18.4459 7.50678 18.9405 8.7012C19.4352 9.89562 19.689 11.176 19.6875 12.4687C19.6882 13.7852 19.4249 15.0884 18.9131 16.3012C18.8409 16.4548 18.7121 16.5743 18.5536 16.6349C18.3951 16.6955 18.2194 16.6923 18.0632 16.6261C17.907 16.5599 17.7825 16.4358 17.7158 16.2798C17.6492 16.1238 17.6455 15.948 17.7056 15.7894C17.8894 15.3519 18.0364 14.9012 18.1466 14.4375H16.4063C16.2322 14.4375 16.0653 14.3684 15.9422 14.2453C15.8191 14.1222 15.75 13.9553 15.75 13.7812C15.75 13.6072 15.8191 13.4403 15.9422 13.3172C16.0653 13.1941 16.2322 13.125 16.4063 13.125H18.3501C18.5011 11.1961 17.99 9.27342 16.9011 7.67419ZM8.97226 14.6527C8.72621 14.4101 8.58662 14.0797 8.58416 13.7341C8.58169 13.3885 8.71657 13.0561 8.95913 12.81C9.46313 12.3047 12.7418 10.1824 13.0922 10.5328C13.4426 10.8832 11.3203 14.1619 10.815 14.6672C10.5689 14.9097 10.2365 15.0446 9.89091 15.0422C9.54535 15.0397 9.21491 14.9001 8.97226 14.6541" fill="#1E7A46"/>
</svg>
