<svg width="25" height="25" viewBox="0 0 25 25" fill="none" xmlns="http://www.w3.org/2000/svg">
<path d="M8.15524 16.8448C5.91504 14.6003 4.19224 11.8934 3.10733 8.91357C2.51045 7.2844 3.05733 5.49482 4.28441 4.26773L5.04378 3.5094C5.24794 3.30483 5.49043 3.14254 5.75738 3.03181C6.02434 2.92107 6.31051 2.86407 6.59951 2.86407C6.88852 2.86407 7.17469 2.92107 7.44164 3.03181C7.7086 3.14254 7.95109 3.30483 8.15524 3.5094L9.93337 5.28752C10.1379 5.49168 10.3002 5.73417 10.411 6.00112C10.5217 6.26807 10.5787 6.55425 10.5787 6.84325C10.5787 7.13226 10.5217 7.41843 10.411 7.68538C10.3002 7.95234 10.1379 8.19483 9.93337 8.39898L9.49587 8.83648C9.32075 9.01156 9.18183 9.21943 9.08706 9.4482C8.99228 9.67698 8.9435 9.92219 8.9435 10.1698C8.9435 10.4174 8.99228 10.6627 9.08706 10.8914C9.18183 11.1202 9.32075 11.3281 9.49587 11.5031L13.4959 15.5042C13.671 15.6793 13.8788 15.8182 14.1076 15.913C14.3364 16.0078 14.5816 16.0566 14.8292 16.0566C15.0768 16.0566 15.322 16.0078 15.5508 15.913C15.7796 15.8182 15.9875 15.6793 16.1625 15.5042L16.6011 15.0667C16.8052 14.8621 17.0477 14.6998 17.3147 14.5891C17.5816 14.4784 17.8678 14.4214 18.1568 14.4214C18.4458 14.4214 18.732 14.4784 18.9989 14.5891C19.2659 14.6998 19.5084 14.8621 19.7125 15.0667L21.4907 16.8448C21.6952 17.049 21.8575 17.2915 21.9683 17.5584C22.079 17.8254 22.136 18.1115 22.136 18.4005C22.136 18.6896 22.079 18.9757 21.9683 19.2427C21.8575 19.5096 21.6952 19.7521 21.4907 19.9563L20.7323 20.7146C19.5052 21.9427 17.7157 22.4896 16.0865 21.8927C13.1066 20.8078 10.3998 19.085 8.15524 16.8448Z" stroke="#1E7A46" stroke-width="2" stroke-linejoin="round"/>
</svg>
